<svg width="41" height="49" fill="none" xmlns="http://www.w3.org/2000/svg"><path d="M24.755 40.598l-4.61 5.53-4.436-5.345-.086-.104-.1-.088-7.817-6.836C.904 26.815.918 15.6 7.748 8.676l.718-.727a17.36 17.36 0 0124.786 0c6.844 6.937 6.844 18.184 0 25.122l-.317.32-7.998 7.02-.098.086-.084.1z" stroke="#FFD61B" stroke-width="3.354"/><path transform="scale(.99323 1.00672) rotate(-45 35.045 -5.847)" fill="url(#paint0_diamond_2_1678)" stroke="#FFD61B" stroke-width="5.207" d="M3.657 0h5.207v5.207H3.657z"/><mask id="a" fill="#fff"><path d="M16.249 32.983l3.947-2.592-9.176-9.3-2.567 3.729 7.796 8.163z"/></mask><path d="M16.249 32.983l3.947-2.592-9.176-9.3-2.567 3.729 7.796 8.163z" fill="url(#paint1_linear_2_1678)"/><path d="M16.249 32.983l33.957 53.126-43.108 28.306-35.723-37.407 44.874-44.025zm3.947-2.592l44.16-44.76 54.596 55.336-64.8 42.55L20.197 30.39zm-9.176-9.3l-51.217-36.222 42.66-61.972L55.182-23.67l-44.16 44.76zM8.453 24.82L-36.42 68.844-72.208 31.37l29.444-42.772L8.453 24.82zm-26.16-44.963l3.946-2.592L54.153 83.517l-3.947 2.592-67.914-106.252zm-6.258 95.294l-9.175-9.3L55.18-23.67l9.176 9.3-88.322 89.52zm86.203-17.839l-2.567 3.729-102.435-72.443 2.567-3.729L62.238 57.312zm-8.91-76.518l7.795 8.163-89.748 88.051-7.796-8.163 89.749-88.05z" fill="#FFD61B" mask="url(#a)"/><mask id="b" fill="#fff"><path d="M25.022 32.983l-3.947-2.592 9.176-9.3 2.567 3.729-7.796 8.163z"/></mask><path d="M25.022 32.983l-3.947-2.592 9.176-9.3 2.567 3.729-7.796 8.163z" fill="url(#paint2_linear_2_1678)"/><path d="M25.022 32.983L-8.935 86.109l43.108 28.306 35.723-37.407-44.874-44.025zm-3.947-2.592l-44.16-44.76-54.596 55.336 64.8 42.55L21.074 30.39zm9.176-9.3l51.218-36.222-42.661-61.972L-13.91-23.67l44.16 44.76zm2.567 3.729l44.874 44.025 35.787-37.475-29.444-42.772L32.819 24.82zm26.161-44.963l-3.947-2.592-67.914 106.252 3.947 2.592L58.98-20.143zm6.257 95.294l9.176-9.3-88.322-89.52-9.176 9.3 88.322 89.52zm-86.203-17.839l2.567 3.729L84.036-11.402l-2.567-3.729-102.436 72.443zm8.91-76.518l-7.795 8.163 89.748 88.05 7.796-8.162-89.748-88.05z" fill="#FFD61B" mask="url(#b)"/><mask id="c" fill="#fff"><path d="M16.249 8.266l3.947 2.592-9.176 9.3-2.567-3.729 7.796-8.163z"/></mask><path d="M16.249 8.266l3.947 2.592-9.176 9.3-2.567-3.729 7.796-8.163z" fill="url(#paint3_linear_2_1678)"/><path d="M16.249 8.266L50.206-44.86 7.098-73.166-28.625-35.76 16.249 8.266zm3.947 2.592l44.16 44.76L118.953.282l-64.8-42.55-33.956 53.126zm-9.176 9.3L-40.197 56.38l42.66 61.972 52.718-53.434-44.16-44.76zM8.453 16.43L-36.42-27.596-72.208 9.879l29.444 42.772L8.453 16.429zm-26.16 44.963l3.946 2.592L54.153-42.268l-3.947-2.592-67.914 106.252zm-6.258-95.294l-9.175 9.3 88.321 89.52 9.176-9.3-88.322-89.52zm86.203 17.839l-2.567-3.73-102.435 72.444 2.567 3.729L62.238-16.063zm-8.91 76.518l7.795-8.163-89.748-88.051-7.796 8.163 89.749 88.05z" fill="#FFD61B" mask="url(#c)"/><mask id="d" fill="#fff"><path d="M25.022 8.266l-3.947 2.592 9.176 9.3 2.567-3.729-7.796-8.163z"/></mask><path d="M25.022 8.266l-3.947 2.592 9.176 9.3 2.567-3.729-7.796-8.163z" fill="url(#paint4_linear_2_1678)"/><path d="M25.022 8.266L-8.935-44.86l43.108-28.306L69.896-35.76 25.022 8.266zm-3.947 2.592l-44.16 44.76L-77.682.282l64.8-42.55 33.956 53.126zm9.176 9.3L81.469 56.38l-42.661 61.972-52.718-53.434 44.16-44.76zm2.567-3.729l44.874-44.025 35.787 37.475L84.035 52.65 32.819 16.429zm26.161 44.963l-3.947 2.592-67.914-106.252 3.947-2.592L58.98 61.392zm6.257-95.294l9.176 9.3-88.322 89.52-9.176-9.3 88.322-89.52zm-86.203 17.839l2.567-3.73L84.036 52.652l-2.567 3.729-102.436-72.443zm8.91 76.518l-7.795-8.163L69.896-35.76l7.796 8.163-89.748 88.05z" fill="#FFD61B" mask="url(#d)"/><defs><linearGradient id="paint1_linear_2_1678" x1="16.178" y1="26.612" x2="13.173" y2="29.578" gradientUnits="userSpaceOnUse"><stop stop-color="#A6A6A6"/><stop offset="1" stop-color="#A6A6A6"/></linearGradient><linearGradient id="paint2_linear_2_1678" x1="25.074" y1="26.066" x2="27.806" y2="28.761" gradientUnits="userSpaceOnUse"><stop stop-color="#A6A6A6"/><stop offset="1" stop-color="#A6A6A6"/></linearGradient><linearGradient id="paint3_linear_2_1678" x1="16.448" y1="15.134" x2="13.442" y2="12.169" gradientUnits="userSpaceOnUse"><stop stop-color="#A6A6A6"/><stop offset="1" stop-color="#A6A6A6"/></linearGradient><linearGradient id="paint4_linear_2_1678" x1="25.613" y1="15.681" x2="28.619" y2="12.716" gradientUnits="userSpaceOnUse"><stop stop-color="#A7A7A7"/><stop offset="1" stop-color="#A6A6A6"/></linearGradient><radialGradient id="paint0_diamond_2_1678" cx="0" cy="0" r="1" gradientUnits="userSpaceOnUse" gradientTransform="rotate(90 0 5.207) scale(5.20668)"><stop stop-color="#A6A6A6"/><stop offset="1" stop-color="#A6A6A6"/></radialGradient></defs></svg>